<mxfile host="app.diagrams.net" modified="2021-03-30T12:00:09.825Z" agent="5.0 (X11; Linux x86_64) AppleWebKit/537.36 (KHTML, like Gecko) Chrome/89.0.4389.90 Safari/537.36" etag="HOwRWUjhT-qWUpp03PNM" version="14.5.3" type="github">
  <diagram id="C5RBs43oDa-KdzZeNtuy" name="Page-1">
    <mxGraphModel dx="1873" dy="1763" grid="1" gridSize="10" guides="1" tooltips="1" connect="1" arrows="1" fold="1" page="1" pageScale="1" pageWidth="827" pageHeight="1169" math="0" shadow="0">
      <root>
        <mxCell id="WIyWlLk6GJQsqaUBKTNV-0" />
        <mxCell id="WIyWlLk6GJQsqaUBKTNV-1" parent="WIyWlLk6GJQsqaUBKTNV-0" />
        <mxCell id="8_k_hxX0hsHRm7YYxcYZ-0" value="" style="rounded=0;html=1;jettySize=auto;orthogonalLoop=1;fontSize=11;endArrow=block;endFill=0;endSize=8;strokeWidth=1;shadow=0;labelBackgroundColor=none;edgeStyle=orthogonalEdgeStyle;noEdgeStyle=1;orthogonal=1;" parent="WIyWlLk6GJQsqaUBKTNV-1" source="8_k_hxX0hsHRm7YYxcYZ-1" target="8_k_hxX0hsHRm7YYxcYZ-4" edge="1">
          <mxGeometry relative="1" as="geometry" />
        </mxCell>
        <mxCell id="8_k_hxX0hsHRm7YYxcYZ-1" value="پیش شرایط" style="rounded=1;whiteSpace=wrap;html=1;fontSize=12;glass=0;strokeWidth=1;shadow=0;" parent="WIyWlLk6GJQsqaUBKTNV-1" vertex="1">
          <mxGeometry x="918.1999999999999" y="49.99835648148155" width="120" height="40" as="geometry" />
        </mxCell>
        <mxCell id="8_k_hxX0hsHRm7YYxcYZ-2" value="بلی" style="edgeStyle=orthogonalEdgeStyle;rounded=0;sketch=0;orthogonalLoop=1;jettySize=auto;html=1;entryX=0.5;entryY=0;entryDx=0;entryDy=0;shadow=0;fontSize=15;align=left;noEdgeStyle=1;orthogonal=1;" parent="WIyWlLk6GJQsqaUBKTNV-1" source="8_k_hxX0hsHRm7YYxcYZ-4" target="8_k_hxX0hsHRm7YYxcYZ-7" edge="1">
          <mxGeometry relative="1" as="geometry" />
        </mxCell>
        <mxCell id="8_k_hxX0hsHRm7YYxcYZ-3" value="خیر" style="edgeStyle=orthogonalEdgeStyle;rounded=0;sketch=0;orthogonalLoop=1;jettySize=auto;html=1;entryX=0.5;entryY=0;entryDx=0;entryDy=0;shadow=0;fontSize=14;align=left;noEdgeStyle=1;orthogonal=1;exitX=1;exitY=0.5;exitDx=0;exitDy=0;" parent="WIyWlLk6GJQsqaUBKTNV-1" source="8_k_hxX0hsHRm7YYxcYZ-4" target="8_k_hxX0hsHRm7YYxcYZ-30" edge="1">
          <mxGeometry relative="1" as="geometry" />
        </mxCell>
        <mxCell id="8_k_hxX0hsHRm7YYxcYZ-4" value="گواهینامه دارای شناسه بانک مرکزی است؟" style="rhombus;whiteSpace=wrap;html=1;shadow=0;fontFamily=Helvetica;fontSize=12;align=center;strokeWidth=1;spacing=6;spacingTop=-4;" parent="WIyWlLk6GJQsqaUBKTNV-1" vertex="1">
          <mxGeometry x="918.1999999999999" y="139.99835648148155" width="120" height="100" as="geometry" />
        </mxCell>
        <mxCell id="8_k_hxX0hsHRm7YYxcYZ-5" value="خیر" style="edgeStyle=orthogonalEdgeStyle;rounded=0;sketch=0;orthogonalLoop=1;jettySize=auto;html=1;shadow=0;fontSize=15;align=left;noEdgeStyle=1;orthogonal=1;" parent="WIyWlLk6GJQsqaUBKTNV-1" source="8_k_hxX0hsHRm7YYxcYZ-7" target="8_k_hxX0hsHRm7YYxcYZ-14" edge="1">
          <mxGeometry relative="1" as="geometry" />
        </mxCell>
        <mxCell id="8_k_hxX0hsHRm7YYxcYZ-6" value="بلی" style="edgeStyle=orthogonalEdgeStyle;rounded=0;sketch=0;orthogonalLoop=1;jettySize=auto;html=1;entryX=0.5;entryY=0;entryDx=0;entryDy=0;shadow=0;fontSize=15;align=left;noEdgeStyle=1;orthogonal=1;" parent="WIyWlLk6GJQsqaUBKTNV-1" source="8_k_hxX0hsHRm7YYxcYZ-7" target="8_k_hxX0hsHRm7YYxcYZ-10" edge="1">
          <mxGeometry relative="1" as="geometry" />
        </mxCell>
        <mxCell id="8_k_hxX0hsHRm7YYxcYZ-7" value="گواهینامه کانورتی است؟" style="rhombus;whiteSpace=wrap;html=1;shadow=0;fontFamily=Helvetica;fontSize=12;align=center;strokeWidth=1;spacing=6;spacingTop=-4;" parent="WIyWlLk6GJQsqaUBKTNV-1" vertex="1">
          <mxGeometry x="321.9" y="289.99835648148155" width="100" height="80" as="geometry" />
        </mxCell>
        <mxCell id="8_k_hxX0hsHRm7YYxcYZ-8" value="خیر" style="edgeStyle=orthogonalEdgeStyle;rounded=0;sketch=0;orthogonalLoop=1;jettySize=auto;html=1;shadow=0;fontSize=15;align=center;entryX=0.5;entryY=0;entryDx=0;entryDy=0;noEdgeStyle=1;orthogonal=1;" parent="WIyWlLk6GJQsqaUBKTNV-1" source="8_k_hxX0hsHRm7YYxcYZ-10" target="8_k_hxX0hsHRm7YYxcYZ-11" edge="1">
          <mxGeometry relative="1" as="geometry">
            <mxPoint x="90" y="-251.77999999999997" as="targetPoint" />
          </mxGeometry>
        </mxCell>
        <mxCell id="8_k_hxX0hsHRm7YYxcYZ-9" value="بلی" style="edgeStyle=orthogonalEdgeStyle;rounded=0;sketch=0;orthogonalLoop=1;jettySize=auto;html=1;shadow=0;fontSize=15;align=left;noEdgeStyle=1;orthogonal=1;" parent="WIyWlLk6GJQsqaUBKTNV-1" source="8_k_hxX0hsHRm7YYxcYZ-10" target="8_k_hxX0hsHRm7YYxcYZ-18" edge="1">
          <mxGeometry relative="1" as="geometry" />
        </mxCell>
        <mxCell id="8_k_hxX0hsHRm7YYxcYZ-10" value="گواهینامه دارای رفع سوءاثر است؟" style="rhombus;whiteSpace=wrap;html=1;shadow=0;fontFamily=Helvetica;fontSize=12;align=center;strokeWidth=1;spacing=6;spacingTop=-4;" parent="WIyWlLk6GJQsqaUBKTNV-1" vertex="1">
          <mxGeometry x="593.8" y="419.99835648148155" width="100" height="80" as="geometry" />
        </mxCell>
        <mxCell id="8_k_hxX0hsHRm7YYxcYZ-11" value="اصلاح وضعیت معادل کد تامین ۳ و حالت شناسه یافت شد" style="rounded=1;whiteSpace=wrap;html=1;fontSize=12;glass=0;strokeWidth=1;shadow=0;" parent="WIyWlLk6GJQsqaUBKTNV-1" vertex="1">
          <mxGeometry x="461.59999999999997" y="549.9983564814816" width="150" height="60" as="geometry" />
        </mxCell>
        <mxCell id="8_k_hxX0hsHRm7YYxcYZ-12" value="بلی" style="edgeStyle=orthogonalEdgeStyle;rounded=0;sketch=0;orthogonalLoop=1;jettySize=auto;html=1;entryX=0.5;entryY=0;entryDx=0;entryDy=0;shadow=0;fontSize=15;align=left;noEdgeStyle=1;orthogonal=1;exitX=0;exitY=1;exitDx=0;exitDy=0;" parent="WIyWlLk6GJQsqaUBKTNV-1" source="8_k_hxX0hsHRm7YYxcYZ-14" target="8_k_hxX0hsHRm7YYxcYZ-21" edge="1">
          <mxGeometry relative="1" as="geometry" />
        </mxCell>
        <mxCell id="8_k_hxX0hsHRm7YYxcYZ-13" value="خیر" style="edgeStyle=orthogonalEdgeStyle;rounded=0;sketch=0;orthogonalLoop=1;jettySize=auto;html=1;shadow=0;fontSize=15;align=left;noEdgeStyle=1;orthogonal=1;exitX=1;exitY=1;exitDx=0;exitDy=0;entryX=0.5;entryY=0;entryDx=0;entryDy=0;" parent="WIyWlLk6GJQsqaUBKTNV-1" source="8_k_hxX0hsHRm7YYxcYZ-14" target="8_k_hxX0hsHRm7YYxcYZ-23" edge="1">
          <mxGeometry relative="1" as="geometry" />
        </mxCell>
        <mxCell id="8_k_hxX0hsHRm7YYxcYZ-14" value="وضعیت ارسال گواهینامه &lt;font color=&quot;#ff3333&quot; style=&quot;font-size: 14px;&quot;&gt;تایید بانک مرکزی&lt;/font&gt; است؟" style="rhombus;whiteSpace=wrap;html=1;shadow=0;fontFamily=Helvetica;fontSize=14;align=center;strokeWidth=1;spacing=6;spacingTop=-4;" parent="WIyWlLk6GJQsqaUBKTNV-1" vertex="1">
          <mxGeometry x="50" y="419.99835648148155" width="170" height="110" as="geometry" />
        </mxCell>
        <mxCell id="8_k_hxX0hsHRm7YYxcYZ-15" style="edgeStyle=orthogonalEdgeStyle;rounded=0;sketch=0;orthogonalLoop=1;jettySize=auto;html=1;entryX=1;entryY=0;entryDx=0;entryDy=0;shadow=0;fontSize=15;align=left;noEdgeStyle=1;orthogonal=1;" parent="WIyWlLk6GJQsqaUBKTNV-1" source="8_k_hxX0hsHRm7YYxcYZ-18" target="8_k_hxX0hsHRm7YYxcYZ-44" edge="1">
          <mxGeometry relative="1" as="geometry">
            <mxPoint x="50" y="-91.77999999999997" as="targetPoint" />
          </mxGeometry>
        </mxCell>
        <mxCell id="8_k_hxX0hsHRm7YYxcYZ-16" value="خیر" style="edgeLabel;html=1;align=center;verticalAlign=middle;resizable=0;points=[];fontSize=15;" parent="8_k_hxX0hsHRm7YYxcYZ-15" vertex="1" connectable="0">
          <mxGeometry x="-0.2174" y="2" relative="1" as="geometry">
            <mxPoint as="offset" />
          </mxGeometry>
        </mxCell>
        <mxCell id="8_k_hxX0hsHRm7YYxcYZ-17" value="بلی" style="edgeStyle=orthogonalEdgeStyle;rounded=0;sketch=0;orthogonalLoop=1;jettySize=auto;html=1;shadow=0;fontSize=15;align=left;noEdgeStyle=1;orthogonal=1;exitX=1;exitY=1;exitDx=0;exitDy=0;entryX=0.5;entryY=0;entryDx=0;entryDy=0;" parent="WIyWlLk6GJQsqaUBKTNV-1" source="8_k_hxX0hsHRm7YYxcYZ-18" target="8_k_hxX0hsHRm7YYxcYZ-20" edge="1">
          <mxGeometry relative="1" as="geometry" />
        </mxCell>
        <mxCell id="8_k_hxX0hsHRm7YYxcYZ-18" value="رفع سواثر کانورتی است؟" style="rhombus;whiteSpace=wrap;html=1;shadow=0;fontFamily=Helvetica;fontSize=12;align=center;strokeWidth=1;spacing=6;spacingTop=-4;" parent="WIyWlLk6GJQsqaUBKTNV-1" vertex="1">
          <mxGeometry x="726" y="549.9983564814816" width="100" height="80" as="geometry" />
        </mxCell>
        <mxCell id="8_k_hxX0hsHRm7YYxcYZ-19" value="&lt;h1 style=&quot;text-align: right&quot;&gt;کد تامین در گواهینامه های کانورتی&lt;/h1&gt;&lt;div style=&quot;text-align: right&quot;&gt;&lt;br&gt;&lt;/div&gt;&lt;p&gt;&lt;/p&gt;&lt;div style=&quot;text-align: right&quot;&gt;کد تامین ۱ - گواهینامه دارای رفع سوءاثر&amp;nbsp; &lt;font color=&quot;#ff3333&quot;&gt;کانورتی&lt;/font&gt; با وضعیت &lt;font color=&quot;#ff0000&quot;&gt;صادر شده&lt;/font&gt; و بررسی &lt;font color=&quot;#ff3333&quot;&gt;تایید رئیس شعبه&lt;/font&gt; است&lt;br&gt;کد تامین ۲ - گواهینامه دارای رفع سوءاثر&amp;nbsp;&lt;font color=&quot;#ff3333&quot;&gt;کانورتی&lt;/font&gt;&amp;nbsp;با وضعیت&amp;nbsp;&lt;font color=&quot;#ff0000&quot;&gt;موقت&lt;/font&gt;&amp;nbsp;و بررسی در حال ثبت یا&amp;nbsp;&lt;font color=&quot;#ff3333&quot;&gt;تایید رئیس شعبه&lt;/font&gt;&amp;nbsp;است&lt;br&gt;کد تامین ۳ - گواهینامه کانورتی رفع سواثر ندارد&lt;br&gt;کد تامین ۴ - گواهینامه دارای رفع سوءاثر&amp;nbsp;&amp;nbsp;&lt;font color=&quot;#ff3333&quot;&gt;کانورتی&lt;/font&gt;&amp;nbsp;با وضعیت&amp;nbsp;&lt;font color=&quot;#ff0000&quot;&gt;صادر شده&lt;/font&gt;&amp;nbsp;و بررسی&amp;nbsp;&lt;font color=&quot;#ff3333&quot;&gt;تایید منطقه&lt;/font&gt;&amp;nbsp;است&lt;br&gt;کد تامین&amp;nbsp; ۵&amp;nbsp; -&amp;nbsp;گواهینامه دارای رفع سوءاثر&amp;nbsp;&amp;nbsp;&lt;font color=&quot;#ff3333&quot;&gt;کانورتی&lt;/font&gt;&amp;nbsp;با وضعیت&amp;nbsp;&lt;font color=&quot;#ff0000&quot;&gt;ابطال شده&lt;/font&gt;&amp;nbsp;و بررسی &lt;font color=&quot;#ff3333&quot;&gt;عدم&amp;nbsp;&lt;/font&gt;&lt;font color=&quot;#ff3333&quot;&gt;تایید منطقه&lt;/font&gt;&amp;nbsp;است&lt;/div&gt;&lt;p&gt;&lt;/p&gt;" style="text;html=1;strokeColor=none;fillColor=none;spacing=5;spacingTop=-20;whiteSpace=wrap;overflow=hidden;rounded=0;fontSize=15;" parent="WIyWlLk6GJQsqaUBKTNV-1" vertex="1">
          <mxGeometry x="1140" y="-90" width="720" height="230" as="geometry" />
        </mxCell>
        <mxCell id="8_k_hxX0hsHRm7YYxcYZ-20" value="&lt;span style=&quot;font-size: 12px&quot;&gt;اصلاح وضعیت معادل کد تامین ۱ یا ۲ یا ۴ یا ۵ و حالت شناسه یافت شد&lt;/span&gt;" style="rounded=1;whiteSpace=wrap;html=1;fontSize=14;glass=0;strokeWidth=1;shadow=0;" parent="WIyWlLk6GJQsqaUBKTNV-1" vertex="1">
          <mxGeometry x="752" y="679.9983564814816" width="260" height="80" as="geometry" />
        </mxCell>
        <mxCell id="8_k_hxX0hsHRm7YYxcYZ-21" value="هیچ کاری نکند یا پیام اطلاع رسانی مناسب بدهد" style="rounded=1;whiteSpace=wrap;html=1;fontSize=13;align=center;fontColor=#3333FF;" parent="WIyWlLk6GJQsqaUBKTNV-1" vertex="1">
          <mxGeometry x="-520" y="580" width="470" height="80" as="geometry" />
        </mxCell>
        <mxCell id="8_k_hxX0hsHRm7YYxcYZ-22" value="خیر" style="edgeStyle=orthogonalEdgeStyle;rounded=0;sketch=0;orthogonalLoop=1;jettySize=auto;html=1;shadow=0;fontSize=14;align=left;noEdgeStyle=1;orthogonal=1;" parent="WIyWlLk6GJQsqaUBKTNV-1" source="8_k_hxX0hsHRm7YYxcYZ-23" target="8_k_hxX0hsHRm7YYxcYZ-26" edge="1">
          <mxGeometry relative="1" as="geometry" />
        </mxCell>
        <mxCell id="8_k_hxX0hsHRm7YYxcYZ-23" value="وضعیت ارسال گواهینامه تایید بانک مرکزی است؟" style="rhombus;whiteSpace=wrap;html=1;shadow=0;fontFamily=Helvetica;fontSize=12;align=center;strokeWidth=1;spacing=6;spacingTop=-4;fontColor=#3333FF;" parent="WIyWlLk6GJQsqaUBKTNV-1" vertex="1">
          <mxGeometry x="150" y="579.9983564814816" width="130" height="100" as="geometry" />
        </mxCell>
        <mxCell id="8_k_hxX0hsHRm7YYxcYZ-24" value="بلی" style="edgeStyle=orthogonalEdgeStyle;rounded=0;sketch=0;orthogonalLoop=1;jettySize=auto;html=1;shadow=0;fontSize=14;align=left;noEdgeStyle=1;orthogonal=1;entryX=0.5;entryY=0;entryDx=0;entryDy=0;exitX=0;exitY=1;exitDx=0;exitDy=0;" parent="WIyWlLk6GJQsqaUBKTNV-1" source="8_k_hxX0hsHRm7YYxcYZ-26" target="8_k_hxX0hsHRm7YYxcYZ-27" edge="1">
          <mxGeometry relative="1" as="geometry" />
        </mxCell>
        <mxCell id="8_k_hxX0hsHRm7YYxcYZ-25" value="خیر" style="edgeStyle=orthogonalEdgeStyle;rounded=0;sketch=0;orthogonalLoop=1;jettySize=auto;html=1;shadow=0;fontSize=14;align=left;entryX=0.5;entryY=0;entryDx=0;entryDy=0;noEdgeStyle=1;orthogonal=1;" parent="WIyWlLk6GJQsqaUBKTNV-1" source="8_k_hxX0hsHRm7YYxcYZ-26" target="8_k_hxX0hsHRm7YYxcYZ-28" edge="1">
          <mxGeometry relative="1" as="geometry">
            <mxPoint x="-405" y="-281.78" as="targetPoint" />
          </mxGeometry>
        </mxCell>
        <mxCell id="8_k_hxX0hsHRm7YYxcYZ-26" value="گواهینامه دارای رفع سواثر &lt;font&gt;صادر شده&lt;/font&gt; که وضعیت آن &lt;font&gt;نیاز به ارسال ندارد&lt;/font&gt; می باشد؟" style="rhombus;whiteSpace=wrap;html=1;shadow=0;fontFamily=Helvetica;fontSize=12;align=center;strokeWidth=1;spacing=6;spacingTop=-4;fontColor=#3333FF;" parent="WIyWlLk6GJQsqaUBKTNV-1" vertex="1">
          <mxGeometry x="120" y="729.9983564814816" width="190" height="100" as="geometry" />
        </mxCell>
        <mxCell id="8_k_hxX0hsHRm7YYxcYZ-27" value="&lt;ul&gt;&lt;li style=&quot;text-align: right ; font-size: 12px&quot;&gt;وضعیت ارسال رفع سو اثر &lt;font&gt;آماده جهت ارسال&lt;/font&gt;&lt;/li&gt;&lt;li style=&quot;text-align: right ; font-size: 12px&quot;&gt;فیلد رفع سواثر گواهینامه را &lt;font&gt;شده&lt;/font&gt; کند&lt;/li&gt;&lt;/ul&gt;" style="rounded=1;whiteSpace=wrap;html=1;fontSize=14;fontColor=#3333FF;" parent="WIyWlLk6GJQsqaUBKTNV-1" vertex="1">
          <mxGeometry x="-20" y="880" width="270" height="60" as="geometry" />
        </mxCell>
        <mxCell id="8_k_hxX0hsHRm7YYxcYZ-28" value="هیچ کاری نمی کند" style="rounded=1;whiteSpace=wrap;html=1;fontSize=14;" parent="WIyWlLk6GJQsqaUBKTNV-1" vertex="1">
          <mxGeometry x="290" y="879.9983564814816" width="120" height="60" as="geometry" />
        </mxCell>
        <mxCell id="8_k_hxX0hsHRm7YYxcYZ-29" value="" style="edgeStyle=orthogonalEdgeStyle;rounded=0;sketch=0;orthogonalLoop=1;jettySize=auto;html=1;shadow=0;fontSize=14;align=left;entryX=0.5;entryY=0;entryDx=0;entryDy=0;noEdgeStyle=1;orthogonal=1;" parent="WIyWlLk6GJQsqaUBKTNV-1" source="8_k_hxX0hsHRm7YYxcYZ-30" target="8_k_hxX0hsHRm7YYxcYZ-32" edge="1">
          <mxGeometry relative="1" as="geometry" />
        </mxCell>
        <mxCell id="8_k_hxX0hsHRm7YYxcYZ-30" value="استعلام گواهینامه از بانک مرکزی" style="rounded=1;whiteSpace=wrap;html=1;fontSize=14;" parent="WIyWlLk6GJQsqaUBKTNV-1" vertex="1">
          <mxGeometry x="1514.5" y="289.99835648148155" width="120" height="60" as="geometry" />
        </mxCell>
        <mxCell id="8_k_hxX0hsHRm7YYxcYZ-31" value="خیر" style="edgeStyle=orthogonalEdgeStyle;rounded=0;sketch=0;orthogonalLoop=1;jettySize=auto;html=1;shadow=0;fontSize=14;align=left;entryX=1;entryY=0;entryDx=0;entryDy=0;noEdgeStyle=1;orthogonal=1;" parent="WIyWlLk6GJQsqaUBKTNV-1" source="8_k_hxX0hsHRm7YYxcYZ-32" target="8_k_hxX0hsHRm7YYxcYZ-35" edge="1">
          <mxGeometry relative="1" as="geometry">
            <mxPoint x="-230" y="-811.78" as="targetPoint" />
          </mxGeometry>
        </mxCell>
        <mxCell id="8_k_hxX0hsHRm7YYxcYZ-48" value="بلی" style="edgeStyle=orthogonalEdgeStyle;rounded=0;orthogonalLoop=1;jettySize=auto;html=1;entryX=1;entryY=0.5;entryDx=0;entryDy=0;fontSize=14;align=left;noEdgeStyle=1;orthogonal=1;" parent="WIyWlLk6GJQsqaUBKTNV-1" source="8_k_hxX0hsHRm7YYxcYZ-32" target="8_k_hxX0hsHRm7YYxcYZ-47" edge="1">
          <mxGeometry relative="1" as="geometry" />
        </mxCell>
        <mxCell id="8_k_hxX0hsHRm7YYxcYZ-32" value="گواهینامه نزد بانک وجود دارد؟" style="rhombus;whiteSpace=wrap;html=1;rounded=1;fontSize=14;" parent="WIyWlLk6GJQsqaUBKTNV-1" vertex="1">
          <mxGeometry x="1514.5" y="399.99835648148155" width="120" height="110" as="geometry" />
        </mxCell>
        <mxCell id="8_k_hxX0hsHRm7YYxcYZ-33" value="خیر" style="edgeStyle=orthogonalEdgeStyle;rounded=0;sketch=0;orthogonalLoop=1;jettySize=auto;html=1;shadow=0;fontSize=14;align=left;noEdgeStyle=1;orthogonal=1;exitX=0;exitY=1;exitDx=0;exitDy=0;entryX=0.5;entryY=0;entryDx=0;entryDy=0;" parent="WIyWlLk6GJQsqaUBKTNV-1" source="8_k_hxX0hsHRm7YYxcYZ-35" target="8_k_hxX0hsHRm7YYxcYZ-36" edge="1">
          <mxGeometry relative="1" as="geometry" />
        </mxCell>
        <mxCell id="8_k_hxX0hsHRm7YYxcYZ-34" value="بلی" style="edgeStyle=orthogonalEdgeStyle;rounded=0;sketch=0;orthogonalLoop=1;jettySize=auto;html=1;shadow=0;fontSize=14;align=left;noEdgeStyle=1;orthogonal=1;" parent="WIyWlLk6GJQsqaUBKTNV-1" source="8_k_hxX0hsHRm7YYxcYZ-35" target="8_k_hxX0hsHRm7YYxcYZ-39" edge="1">
          <mxGeometry relative="1" as="geometry" />
        </mxCell>
        <mxCell id="8_k_hxX0hsHRm7YYxcYZ-35" value="گواهینامه کانورتی است؟" style="rhombus;whiteSpace=wrap;html=1;fontSize=14;" parent="WIyWlLk6GJQsqaUBKTNV-1" vertex="1">
          <mxGeometry x="1242" y="559.9983564814816" width="120" height="120" as="geometry" />
        </mxCell>
        <mxCell id="8_k_hxX0hsHRm7YYxcYZ-36" value="پیام خطا بدهد&lt;br&gt;&lt;div style=&quot;font-size: 9.8pt;&quot;&gt;&lt;span style=&quot;background-color: rgb(255 , 255 , 255)&quot;&gt;اطلاعاتی برای این گواهینامه نزد بانک مرکزی یافت نشد&lt;span style=&quot;&quot;&gt;.&lt;/span&gt;&lt;/span&gt;&lt;/div&gt;" style="rounded=1;whiteSpace=wrap;html=1;fontSize=14;fontColor=#FF0000;fontFamily=Tahoma;" parent="WIyWlLk6GJQsqaUBKTNV-1" vertex="1">
          <mxGeometry x="1052" y="729.9983564814816" width="340" height="60" as="geometry" />
        </mxCell>
        <mxCell id="8_k_hxX0hsHRm7YYxcYZ-37" value="خیر" style="edgeStyle=orthogonalEdgeStyle;rounded=0;sketch=0;orthogonalLoop=1;jettySize=auto;html=1;entryX=0.5;entryY=0;entryDx=0;entryDy=0;shadow=0;fontSize=14;align=left;noEdgeStyle=1;orthogonal=1;exitX=0;exitY=1;exitDx=0;exitDy=0;" parent="WIyWlLk6GJQsqaUBKTNV-1" source="8_k_hxX0hsHRm7YYxcYZ-39" target="8_k_hxX0hsHRm7YYxcYZ-40" edge="1">
          <mxGeometry relative="1" as="geometry" />
        </mxCell>
        <mxCell id="8_k_hxX0hsHRm7YYxcYZ-38" value="بلی" style="edgeStyle=orthogonalEdgeStyle;rounded=0;sketch=0;orthogonalLoop=1;jettySize=auto;html=1;shadow=0;fontSize=14;fontColor=#000000;align=left;noEdgeStyle=1;orthogonal=1;exitX=1;exitY=1;exitDx=0;exitDy=0;entryX=0.5;entryY=0;entryDx=0;entryDy=0;" parent="WIyWlLk6GJQsqaUBKTNV-1" source="8_k_hxX0hsHRm7YYxcYZ-39" target="8_k_hxX0hsHRm7YYxcYZ-41" edge="1">
          <mxGeometry relative="1" as="geometry" />
        </mxCell>
        <mxCell id="8_k_hxX0hsHRm7YYxcYZ-39" value="گواهینامه رفع سوءاثر دارد؟" style="rhombus;whiteSpace=wrap;html=1;fontSize=14;" parent="WIyWlLk6GJQsqaUBKTNV-1" vertex="1">
          <mxGeometry x="1432" y="729.9983564814816" width="120" height="120" as="geometry" />
        </mxCell>
        <mxCell id="8_k_hxX0hsHRm7YYxcYZ-40" value="&lt;span style=&quot;color: rgb(0 , 0 , 0) ; font-size: 12px&quot;&gt;اصلاح وضعیت معادل کد تامین ۳ و حالت شناسه یافت نشد&lt;/span&gt;" style="rounded=1;whiteSpace=wrap;html=1;fontSize=14;fontColor=#FF0000;" parent="WIyWlLk6GJQsqaUBKTNV-1" vertex="1">
          <mxGeometry x="1323.5" y="899.9983564814816" width="130" height="60" as="geometry" />
        </mxCell>
        <mxCell id="8_k_hxX0hsHRm7YYxcYZ-41" value="&lt;span style=&quot;font-size: 12px&quot;&gt;اصلاح وضعیت معادل کد تامین ۱ یا ۲ یا ۴ یا ۵ و حالت شناسه یافت نشد&lt;/span&gt;" style="rounded=1;whiteSpace=wrap;html=1;fontSize=14;fontColor=#000000;" parent="WIyWlLk6GJQsqaUBKTNV-1" vertex="1">
          <mxGeometry x="1493.5" y="899.9983564814816" width="167" height="60" as="geometry" />
        </mxCell>
        <mxCell id="8_k_hxX0hsHRm7YYxcYZ-42" value="بلی" style="edgeStyle=orthogonalEdgeStyle;rounded=0;sketch=0;orthogonalLoop=1;jettySize=auto;html=1;entryX=0.5;entryY=0;entryDx=0;entryDy=0;shadow=0;fontFamily=Tahoma;fontSize=14;fontColor=#000000;align=left;noEdgeStyle=1;orthogonal=1;" parent="WIyWlLk6GJQsqaUBKTNV-1" source="8_k_hxX0hsHRm7YYxcYZ-44" target="8_k_hxX0hsHRm7YYxcYZ-46" edge="1">
          <mxGeometry relative="1" as="geometry" />
        </mxCell>
        <mxCell id="8_k_hxX0hsHRm7YYxcYZ-43" value="خیر" style="edgeStyle=orthogonalEdgeStyle;rounded=0;sketch=0;orthogonalLoop=1;jettySize=auto;html=1;shadow=0;fontFamily=Tahoma;fontSize=14;fontColor=#000000;align=left;noEdgeStyle=1;orthogonal=1;entryX=0.442;entryY=0.017;entryDx=0;entryDy=0;entryPerimeter=0;" parent="WIyWlLk6GJQsqaUBKTNV-1" source="8_k_hxX0hsHRm7YYxcYZ-44" target="8_k_hxX0hsHRm7YYxcYZ-45" edge="1">
          <mxGeometry relative="1" as="geometry" />
        </mxCell>
        <mxCell id="8_k_hxX0hsHRm7YYxcYZ-44" value="رفع سواثر حضوری ثبت شده است؟" style="rhombus;whiteSpace=wrap;html=1;shadow=0;fontFamily=Helvetica;fontSize=12;align=center;strokeWidth=1;spacing=6;spacingTop=-4;fontColor=#3333FF;" parent="WIyWlLk6GJQsqaUBKTNV-1" vertex="1">
          <mxGeometry x="540" y="679.9983564814816" width="100" height="80" as="geometry" />
        </mxCell>
        <mxCell id="8_k_hxX0hsHRm7YYxcYZ-45" value="" style="rounded=1;whiteSpace=wrap;html=1;fontFamily=Tahoma;fontSize=14;fontColor=#000000;" parent="WIyWlLk6GJQsqaUBKTNV-1" vertex="1">
          <mxGeometry x="610" y="809.9983564814816" width="120" height="60" as="geometry" />
        </mxCell>
        <mxCell id="8_k_hxX0hsHRm7YYxcYZ-46" value="" style="rounded=1;whiteSpace=wrap;html=1;fontFamily=Tahoma;fontSize=14;fontColor=#000000;" parent="WIyWlLk6GJQsqaUBKTNV-1" vertex="1">
          <mxGeometry x="449.99999999999994" y="809.9983564814816" width="120" height="60" as="geometry" />
        </mxCell>
        <mxCell id="8_k_hxX0hsHRm7YYxcYZ-50" value="خیر" style="edgeStyle=orthogonalEdgeStyle;rounded=0;orthogonalLoop=1;jettySize=auto;html=1;fontSize=13;noEdgeStyle=1;orthogonal=1;entryX=0.5;entryY=0;entryDx=0;entryDy=0;" parent="WIyWlLk6GJQsqaUBKTNV-1" source="8_k_hxX0hsHRm7YYxcYZ-47" target="8_k_hxX0hsHRm7YYxcYZ-49" edge="1">
          <mxGeometry relative="1" as="geometry" />
        </mxCell>
        <mxCell id="8_k_hxX0hsHRm7YYxcYZ-52" value="بلی" style="edgeStyle=orthogonalEdgeStyle;rounded=0;orthogonalLoop=1;jettySize=auto;html=1;align=right;fontSize=14;noEdgeStyle=1;orthogonal=1;entryX=0.5;entryY=0;entryDx=0;entryDy=0;" parent="WIyWlLk6GJQsqaUBKTNV-1" source="8_k_hxX0hsHRm7YYxcYZ-47" target="AXukRkckfFt8inNndeIy-1" edge="1">
          <mxGeometry relative="1" as="geometry">
            <mxPoint x="1970" y="710" as="targetPoint" />
          </mxGeometry>
        </mxCell>
        <mxCell id="8_k_hxX0hsHRm7YYxcYZ-47" value="گواهینامه کانورتی است؟" style="rhombus;whiteSpace=wrap;html=1;rounded=1;fontSize=14;" parent="WIyWlLk6GJQsqaUBKTNV-1" vertex="1">
          <mxGeometry x="1787" y="559.9983564814816" width="120" height="110" as="geometry" />
        </mxCell>
        <mxCell id="8_k_hxX0hsHRm7YYxcYZ-49" value="&lt;ul&gt;&lt;li&gt;بروزرسانی شناسه بانک مرکزی برای گواهینامه&lt;/li&gt;&lt;li&gt;وضعیت ارسال گواهینامه تایید بانک مرکزی شود&lt;/li&gt;&lt;li&gt;فیلد وضعیت استعلام با ۲ بروز شود&lt;/li&gt;&lt;/ul&gt;" style="rounded=1;whiteSpace=wrap;html=1;fontColor=#0000FF;" parent="WIyWlLk6GJQsqaUBKTNV-1" vertex="1">
          <mxGeometry x="1592" y="719.9983564814816" width="290" height="90" as="geometry" />
        </mxCell>
        <mxCell id="8_k_hxX0hsHRm7YYxcYZ-54" value="خیر" style="edgeStyle=orthogonalEdgeStyle;rounded=0;orthogonalLoop=1;jettySize=auto;html=1;entryX=0.5;entryY=0;entryDx=0;entryDy=0;fontSize=14;noEdgeStyle=1;orthogonal=1;exitX=0.2;exitY=0.727;exitDx=0;exitDy=0;exitPerimeter=0;" parent="WIyWlLk6GJQsqaUBKTNV-1" source="8_k_hxX0hsHRm7YYxcYZ-51" target="8_k_hxX0hsHRm7YYxcYZ-53" edge="1">
          <mxGeometry relative="1" as="geometry" />
        </mxCell>
        <mxCell id="8_k_hxX0hsHRm7YYxcYZ-57" value="بلی" style="edgeStyle=orthogonalEdgeStyle;rounded=0;orthogonalLoop=1;jettySize=auto;html=1;entryX=0.5;entryY=0;entryDx=0;entryDy=0;fontSize=14;noEdgeStyle=1;orthogonal=1;" parent="WIyWlLk6GJQsqaUBKTNV-1" source="8_k_hxX0hsHRm7YYxcYZ-51" target="8_k_hxX0hsHRm7YYxcYZ-55" edge="1">
          <mxGeometry relative="1" as="geometry" />
        </mxCell>
        <mxCell id="8_k_hxX0hsHRm7YYxcYZ-51" value="گواهینامه رفع سوءاثر دارد؟" style="rhombus;whiteSpace=wrap;html=1;rounded=1;fontSize=14;" parent="WIyWlLk6GJQsqaUBKTNV-1" vertex="1">
          <mxGeometry x="1982" y="829.9983564814816" width="120" height="110" as="geometry" />
        </mxCell>
        <mxCell id="8_k_hxX0hsHRm7YYxcYZ-53" value="اصلاح وضعیت معادل کد تامین ۳ و حالت شناسه یافت نشد" style="rounded=1;whiteSpace=wrap;html=1;" parent="WIyWlLk6GJQsqaUBKTNV-1" vertex="1">
          <mxGeometry x="1832" y="989.9983564814816" width="250" height="60" as="geometry" />
        </mxCell>
        <mxCell id="8_k_hxX0hsHRm7YYxcYZ-61" value="خیر" style="edgeStyle=orthogonalEdgeStyle;rounded=0;orthogonalLoop=1;jettySize=auto;html=1;entryX=0.5;entryY=0;entryDx=0;entryDy=0;fontSize=14;noEdgeStyle=1;orthogonal=1;" parent="WIyWlLk6GJQsqaUBKTNV-1" source="8_k_hxX0hsHRm7YYxcYZ-55" target="8_k_hxX0hsHRm7YYxcYZ-58" edge="1">
          <mxGeometry relative="1" as="geometry" />
        </mxCell>
        <mxCell id="8_k_hxX0hsHRm7YYxcYZ-62" value="بلی" style="edgeStyle=orthogonalEdgeStyle;rounded=0;orthogonalLoop=1;jettySize=auto;html=1;fontSize=14;noEdgeStyle=1;orthogonal=1;exitX=1;exitY=1;exitDx=0;exitDy=0;entryX=0.5;entryY=0;entryDx=0;entryDy=0;" parent="WIyWlLk6GJQsqaUBKTNV-1" source="8_k_hxX0hsHRm7YYxcYZ-55" target="8_k_hxX0hsHRm7YYxcYZ-59" edge="1">
          <mxGeometry relative="1" as="geometry" />
        </mxCell>
        <mxCell id="8_k_hxX0hsHRm7YYxcYZ-55" value="رفع سوءاثر کانورتی است؟" style="rhombus;whiteSpace=wrap;html=1;rounded=1;fontSize=14;" parent="WIyWlLk6GJQsqaUBKTNV-1" vertex="1">
          <mxGeometry x="2122" y="989.9983564814816" width="130" height="109.5" as="geometry" />
        </mxCell>
        <mxCell id="8_k_hxX0hsHRm7YYxcYZ-58" value="اگر وضعیت گواهینامه صادر شده و ارسال آن &lt;font color=&quot;#0000ff&quot;&gt;آماده جهت ارسال&lt;/font&gt; نیست:&lt;br&gt;&lt;br&gt;وضعیت ارسال آن را آماده جهت ارسال کن" style="rounded=1;whiteSpace=wrap;html=1;" parent="WIyWlLk6GJQsqaUBKTNV-1" vertex="1">
          <mxGeometry x="1917" y="1149.4983564814816" width="250" height="60" as="geometry" />
        </mxCell>
        <mxCell id="8_k_hxX0hsHRm7YYxcYZ-59" value="اصلاح وضعیت معادل کد تامین ۱ یا ۲ یا ۴ یا ۵ و حالت شناسه یافت شد" style="rounded=1;whiteSpace=wrap;html=1;" parent="WIyWlLk6GJQsqaUBKTNV-1" vertex="1">
          <mxGeometry x="2207" y="1149.4983564814816" width="250" height="60" as="geometry" />
        </mxCell>
        <mxCell id="AXukRkckfFt8inNndeIy-2" style="edgeStyle=orthogonalEdgeStyle;rounded=0;orthogonalLoop=1;jettySize=auto;html=1;fontSize=12;fontColor=#000000;align=left;" parent="WIyWlLk6GJQsqaUBKTNV-1" source="AXukRkckfFt8inNndeIy-1" target="8_k_hxX0hsHRm7YYxcYZ-51" edge="1">
          <mxGeometry relative="1" as="geometry" />
        </mxCell>
        <mxCell id="AXukRkckfFt8inNndeIy-1" value="&lt;ul style=&quot;font-size: 12px&quot;&gt;&lt;li style=&quot;font-size: 12px&quot;&gt;بروزرسانی فیلد شناسه بانک مرکزی&lt;/li&gt;&lt;/ul&gt;" style="rounded=1;whiteSpace=wrap;html=1;fontSize=12;fontColor=#000000;" parent="WIyWlLk6GJQsqaUBKTNV-1" vertex="1">
          <mxGeometry x="1932" y="730" width="220" height="60" as="geometry" />
        </mxCell>
        <mxCell id="AXukRkckfFt8inNndeIy-4" value="&lt;h1&gt;حالت کد تامین ۱ و شناسه یافت شد&lt;/h1&gt;&lt;p&gt;&lt;/p&gt;&lt;ul&gt;&lt;li&gt;درج وضعیت ارسال گواهینامه ۲و۳و۵&amp;nbsp;&lt;/li&gt;&lt;li&gt;&lt;span&gt;فیلد رفع سو اثر گواهینامه : نشده&lt;/span&gt;&lt;br&gt;&lt;/li&gt;&lt;/ul&gt;&lt;p&gt;&lt;/p&gt;" style="text;html=1;strokeColor=none;fillColor=none;spacing=5;spacingTop=-20;whiteSpace=wrap;overflow=hidden;rounded=0;fontSize=13;" parent="WIyWlLk6GJQsqaUBKTNV-1" vertex="1">
          <mxGeometry x="1970" y="1260" width="460" height="100" as="geometry" />
        </mxCell>
        <mxCell id="AXukRkckfFt8inNndeIy-5" value="&lt;h1&gt;حالت کد تامین ۲ و شناسه یافت شد&lt;/h1&gt;&lt;p&gt;&lt;/p&gt;&lt;ul&gt;&lt;li&gt;درج وضعیت ارسال گواهینامه ۲و۳و۵&amp;nbsp;&lt;/li&gt;&lt;li&gt;&lt;span&gt;پاک کردن وضعیت های ارسال رفع سواثر&lt;/span&gt;&lt;br&gt;&lt;/li&gt;&lt;li&gt;فیلد رفع سو اثر گواهینامه : نشده&lt;/li&gt;&lt;/ul&gt;&lt;p&gt;&lt;/p&gt;" style="text;html=1;strokeColor=none;fillColor=none;spacing=5;spacingTop=-20;whiteSpace=wrap;overflow=hidden;rounded=0;fontSize=13;" parent="WIyWlLk6GJQsqaUBKTNV-1" vertex="1">
          <mxGeometry x="1982" y="1380" width="460" height="120" as="geometry" />
        </mxCell>
        <mxCell id="AXukRkckfFt8inNndeIy-6" value="&lt;h1&gt;حالت کد تامین ۳ و شناسه یافت شد&lt;/h1&gt;&lt;p&gt;&lt;/p&gt;&lt;ul&gt;&lt;li&gt;درج وضعیت ارسال گواهینامه ۲و۳و۵&amp;nbsp;&lt;/li&gt;&lt;li&gt;فیلد رفع سو اثر گواهینامه : نشده&lt;/li&gt;&lt;/ul&gt;&lt;p&gt;&lt;/p&gt;" style="text;html=1;strokeColor=none;fillColor=none;spacing=5;spacingTop=-20;whiteSpace=wrap;overflow=hidden;rounded=0;fontSize=13;" parent="WIyWlLk6GJQsqaUBKTNV-1" vertex="1">
          <mxGeometry x="1982" y="1520" width="460" height="110" as="geometry" />
        </mxCell>
        <mxCell id="AXukRkckfFt8inNndeIy-7" value="&lt;h1&gt;حالت کد تامین ۴ و شناسه یافت شد&lt;/h1&gt;&lt;p&gt;&lt;/p&gt;&lt;ul&gt;&lt;li&gt;درج وضعیت ارسال گواهینامه ۲و۳و۵&amp;nbsp;&lt;/li&gt;&lt;li&gt;&lt;span&gt;وضعیت ارسال رفع سواثر : آماده جهت ارسال&lt;/span&gt;&lt;br&gt;&lt;/li&gt;&lt;li&gt;فیلد رفع سو اثر گواهینامه : نشده&lt;/li&gt;&lt;/ul&gt;&lt;p&gt;&lt;/p&gt;" style="text;html=1;strokeColor=none;fillColor=none;spacing=5;spacingTop=-20;whiteSpace=wrap;overflow=hidden;rounded=0;fontSize=13;" parent="WIyWlLk6GJQsqaUBKTNV-1" vertex="1">
          <mxGeometry x="1982" y="1630" width="460" height="140" as="geometry" />
        </mxCell>
        <mxCell id="AXukRkckfFt8inNndeIy-8" value="&lt;h1&gt;حالت کد تامین ۵ و شناسه یافت شد&lt;/h1&gt;&lt;p&gt;&lt;/p&gt;&lt;ul&gt;&lt;li&gt;درج وضعیت ارسال گواهینامه ۲و۳و۵&amp;nbsp;&lt;/li&gt;&lt;li&gt;&lt;span&gt;وضعیت ارسال رفع سواثر : نیاز به ارسال ندارد&lt;/span&gt;&lt;br&gt;&lt;/li&gt;&lt;li&gt;فیلد رفع سو اثر گواهینامه : نشده&lt;/li&gt;&lt;/ul&gt;&lt;p&gt;&lt;/p&gt;" style="text;html=1;strokeColor=none;fillColor=none;spacing=5;spacingTop=-20;whiteSpace=wrap;overflow=hidden;rounded=0;fontSize=13;" parent="WIyWlLk6GJQsqaUBKTNV-1" vertex="1">
          <mxGeometry x="1982" y="1780" width="460" height="140" as="geometry" />
        </mxCell>
        <mxCell id="AXukRkckfFt8inNndeIy-9" value="&lt;h1&gt;حالت کد تامین ۱ و شناسه یافت نشد&lt;/h1&gt;&lt;p&gt;&lt;/p&gt;&lt;ul&gt;&lt;li&gt;درج وضعیت ارسال گواهینامه ۲و۳و۴&amp;nbsp;&lt;/li&gt;&lt;li&gt;&lt;span&gt;فیلد رفع سو اثر گواهینامه : شده&lt;/span&gt;&lt;br&gt;&lt;/li&gt;&lt;li&gt;&lt;span&gt;وضعیت ارسال رفع سواثر: ۴&lt;/span&gt;&lt;/li&gt;&lt;li&gt;&lt;span&gt;ردیف های گواهینامه:‌نیاز به ارسال ندارد&lt;/span&gt;&lt;/li&gt;&lt;/ul&gt;&lt;p&gt;&lt;/p&gt;" style="text;html=1;strokeColor=none;fillColor=none;spacing=5;spacingTop=-20;whiteSpace=wrap;overflow=hidden;rounded=0;fontSize=13;" parent="WIyWlLk6GJQsqaUBKTNV-1" vertex="1">
          <mxGeometry x="1480" y="1260" width="405" height="120" as="geometry" />
        </mxCell>
        <mxCell id="AXukRkckfFt8inNndeIy-10" value="&lt;h1&gt;حالت کد تامین ۲ و شناسه یافت نشد&lt;/h1&gt;&lt;p&gt;&lt;/p&gt;&lt;ul&gt;&lt;li&gt;درج وضعیت ارسال گواهینامه ۲و۳و۶&amp;nbsp;&lt;/li&gt;&lt;li&gt;&lt;span&gt;پاک کردن وضعیت های ارسال رفع سواثر&lt;/span&gt;&lt;br&gt;&lt;/li&gt;&lt;li&gt;فیلد رفع سو اثر گواهینامه : نشده&lt;/li&gt;&lt;/ul&gt;&lt;p&gt;&lt;/p&gt;" style="text;html=1;strokeColor=none;fillColor=none;spacing=5;spacingTop=-20;whiteSpace=wrap;overflow=hidden;rounded=0;fontSize=13;" parent="WIyWlLk6GJQsqaUBKTNV-1" vertex="1">
          <mxGeometry x="1492" y="1380" width="405" height="120" as="geometry" />
        </mxCell>
        <mxCell id="AXukRkckfFt8inNndeIy-11" value="&lt;h1&gt;حالت کد تامین ۳ و شناسه یافت نشد&lt;/h1&gt;&lt;p&gt;&lt;/p&gt;&lt;ul&gt;&lt;li&gt;درج وضعیت ارسال گواهینامه ۲و۳و۶&amp;nbsp;&lt;/li&gt;&lt;li&gt;فیلد رفع سو اثر گواهینامه : نشده&lt;/li&gt;&lt;/ul&gt;&lt;p&gt;&lt;/p&gt;" style="text;html=1;strokeColor=none;fillColor=none;spacing=5;spacingTop=-20;whiteSpace=wrap;overflow=hidden;rounded=0;fontSize=13;" parent="WIyWlLk6GJQsqaUBKTNV-1" vertex="1">
          <mxGeometry x="1492" y="1520" width="405" height="110" as="geometry" />
        </mxCell>
        <mxCell id="AXukRkckfFt8inNndeIy-12" value="&lt;h1&gt;حالت کد تامین ۴ و شناسه یافت نشد&lt;/h1&gt;&lt;p&gt;&lt;/p&gt;&lt;ul&gt;&lt;li&gt;درج وضعیت ارسال گواهینامه ۲و۳و۵&amp;nbsp;&lt;/li&gt;&lt;li&gt;&lt;span&gt;وضعیت ارسال رفع سواثر : تایید بانک مرکزی&lt;/span&gt;&lt;br&gt;&lt;/li&gt;&lt;li&gt;فیلد رفع سو اثر گواهینامه : شده&lt;/li&gt;&lt;li&gt;ردیف های گواهینامه:‌نیاز به ارسال ندارد&lt;/li&gt;&lt;/ul&gt;&lt;p&gt;&lt;/p&gt;" style="text;html=1;strokeColor=none;fillColor=none;spacing=5;spacingTop=-20;whiteSpace=wrap;overflow=hidden;rounded=0;fontSize=13;" parent="WIyWlLk6GJQsqaUBKTNV-1" vertex="1">
          <mxGeometry x="1492" y="1630" width="405" height="140" as="geometry" />
        </mxCell>
        <mxCell id="AXukRkckfFt8inNndeIy-13" value="&lt;h1&gt;حالت کد تامین ۵ و شناسه یافت نشد&lt;/h1&gt;&lt;p&gt;&lt;/p&gt;&lt;ul&gt;&lt;li&gt;درج وضعیت ارسال گواهینامه ۲و۳و۶&amp;nbsp;&lt;/li&gt;&lt;li&gt;&lt;span&gt;وضعیت ارسال رفع سواثر : نیاز به ارسال ندارد&lt;/span&gt;&lt;br&gt;&lt;/li&gt;&lt;li&gt;فیلد رفع سو اثر گواهینامه : نشده&lt;/li&gt;&lt;/ul&gt;&lt;p&gt;&lt;/p&gt;" style="text;html=1;strokeColor=none;fillColor=none;spacing=5;spacingTop=-20;whiteSpace=wrap;overflow=hidden;rounded=0;fontSize=13;" parent="WIyWlLk6GJQsqaUBKTNV-1" vertex="1">
          <mxGeometry x="1492" y="1780" width="405" height="140" as="geometry" />
        </mxCell>
      </root>
    </mxGraphModel>
  </diagram>
</mxfile>
